TITLE ""
FILE "DISC2Track20.mp3" MP3
  TRACK 01 AUDIO
    TITLE "DISC2Track20_01"
    INDEX 01 00:00:00
  TRACK 02 AUDIO
    TITLE "DISC2Track20_02"
    INDEX 01 00:04:41
  TRACK 03 AUDIO
    TITLE "DISC2Track20_03"
    INDEX 01 00:04:61
  TRACK 04 AUDIO
    TITLE "DISC2Track20_04"
    INDEX 01 00:08:61
  TRACK 05 AUDIO
    TITLE "DISC2Track20_05"
    INDEX 01 00:12:27
  TRACK 06 AUDIO
    TITLE "DISC2Track20_06"
    INDEX 01 00:15:63
  TRACK 07 AUDIO
    TITLE "DISC2Track20_07"
    INDEX 01 00:16:11
  TRACK 08 AUDIO
    TITLE "DISC2Track20_08"
    INDEX 01 00:19:23
  TRACK 09 AUDIO
    TITLE "DISC2Track20_09"
    INDEX 01 00:22:39
  TRACK 10 AUDIO
    TITLE "DISC2Track20_10"
    INDEX 01 00:25:46
  TRACK 11 AUDIO
    TITLE "DISC2Track20_11"
    INDEX 01 00:25:69
  TRACK 12 AUDIO
    TITLE "DISC2Track20_12"
    INDEX 01 00:29:55
  TRACK 13 AUDIO
    TITLE "DISC2Track20_13"
    INDEX 01 00:32:51
  TRACK 14 AUDIO
    TITLE "DISC2Track20_14"
    INDEX 01 00:35:40
  TRACK 15 AUDIO
    TITLE "DISC2Track20_15"
    INDEX 01 00:35:64
  TRACK 16 AUDIO
    TITLE "DISC2Track20_16"
    INDEX 01 00:39:40
  TRACK 17 AUDIO
    TITLE "DISC2Track20_17"
    INDEX 01 00:43:08
  TRACK 18 AUDIO
    TITLE "DISC2Track20_18"
    INDEX 01 00:46:46
  TRACK 19 AUDIO
    TITLE "DISC2Track20_19"
    INDEX 01 00:46:71
  TRACK 20 AUDIO
    TITLE "DISC2Track20_20"
    INDEX 01 00:50:55
  TRACK 21 AUDIO
    TITLE "DISC2Track20_21"
    INDEX 01 00:54:33
  TRACK 22 AUDIO
    TITLE "DISC2Track20_22"
    INDEX 01 00:58:04
  TRACK 23 AUDIO
    TITLE "DISC2Track20_23"
    INDEX 01 00:58:27
  TRACK 24 AUDIO
    TITLE "DISC2Track20_24"
    INDEX 01 01:02:68
  TRACK 25 AUDIO
    TITLE "DISC2Track20_25"
    INDEX 01 01:07:05
  TRACK 26 AUDIO
    TITLE "DISC2Track20_26"
    INDEX 01 01:11:08
  TRACK 27 AUDIO
    TITLE "DISC2Track20_27"
    INDEX 01 01:11:34
  TRACK 28 AUDIO
    TITLE "DISC2Track20_28"
    INDEX 01 01:15:63
  TRACK 29 AUDIO
    TITLE "DISC2Track20_29"
    INDEX 01 01:19:65
  TRACK 30 AUDIO
    TITLE "DISC2Track20_30"
    INDEX 01 01:23:57
  TRACK 31 AUDIO
    TITLE "DISC2Track20_31"
    INDEX 01 01:24:07
  TRACK 32 AUDIO
    TITLE "DISC2Track20_32"
    INDEX 01 01:27:54
  TRACK 33 AUDIO
    TITLE "DISC2Track20_33"
    INDEX 01 01:31:07
  TRACK 34 AUDIO
    TITLE "DISC2Track20_34"
    INDEX 01 01:34:25
  TRACK 35 AUDIO
    TITLE "DISC2Track20_35"
    INDEX 01 01:34:47
  TRACK 36 AUDIO
    TITLE "DISC2Track20_36"
    INDEX 01 01:39:34
  TRACK 37 AUDIO
    TITLE "DISC2Track20_37"
    INDEX 01 01:44:00
  TRACK 38 AUDIO
    TITLE "DISC2Track20_38"
    INDEX 01 01:49:33
  TRACK 39 AUDIO
    TITLE "DISC2Track20_39"
    INDEX 01 01:50:06
  TRACK 40 AUDIO
    TITLE "DISC2Track20_40"
    INDEX 01 01:54:71
  TRACK 41 AUDIO
    TITLE "DISC2Track20_41"
    INDEX 01 01:59:45
  TRACK 42 AUDIO
    TITLE "DISC2Track20_42"
    INDEX 01 02:04:12
